# xmcd
#
# Track frame offsets:
#	150
#	27479
#	52908
#	79793
#	107223
#	138615
#	188343
#
# Disc length: 2794 seconds
#
# Revision: 1
# Processed by: cddbd v1.5.1PL2 Copyright (c) Steve Scherf et al.
# Submitted via: EasyCDDAExtractor 9.0.0.1
#
DISCID=550ae807
DTITLE=Saxon - Bloodstock Festival Assembly Rooms Derby 29-08-03 Disc 2
DYEAR=2003
DGENRE=Hard Rock
TTITLE0=Crusader
TTITLE1=Metalhead
TTITLE2=747 (Strangers In The Night)
TTITLE3=Princess Of The Night
TTITLE4=Denim and Leather - Guitar Solo 
TTITLE5=Wheels Of Steel
TTITLE6=Motorcycle Man
EXTD=
EXTT0=
EXTT1=
EXTT2=
EXTT3=
EXTT4=
EXTT5=
EXTT6=
PLAYORDER=
